<svg xmlns="http://www.w3.org/2000/svg" viewBox="0 0 1200 630" role="img" aria-label="Reading Room preview">
  <defs>
    <linearGradient id="bg" x1="0" y1="0" x2="1200" y2="630" gradientUnits="userSpaceOnUse">
      <stop offset="0" stop-color="#fffdf8"/>
      <stop offset=".62" stop-color="#f7efe2"/>
      <stop offset="1" stop-color="#eaddcc"/>
    </linearGradient>
  </defs>
  <rect width="1200" height="630" fill="url(#bg)"/>
  <rect x="64" y="64" width="1072" height="502" rx="34" fill="#fffaf2" stroke="#e7d9c6" stroke-width="2"/>

  <g transform="translate(118 138) scale(.6914)">
    <defs>
      <linearGradient id="paper" x1="70" y1="54" x2="442" y2="466" gradientUnits="userSpaceOnUse">
        <stop offset="0" stop-color="#fffdf8"/>
        <stop offset="1" stop-color="#f1e7d7"/>
      </linearGradient>
      <linearGradient id="leftPage" x1="112" y1="120" x2="244" y2="386" gradientUnits="userSpaceOnUse">
        <stop offset="0" stop-color="#d45a36"/>
        <stop offset="1" stop-color="#ad351f"/>
      </linearGradient>
      <linearGradient id="rightPage" x1="268" y1="120" x2="400" y2="386" gradientUnits="userSpaceOnUse">
        <stop offset="0" stop-color="#c84b29"/>
        <stop offset="1" stop-color="#922b1b"/>
      </linearGradient>
    </defs>
    <rect x="18" y="18" width="476" height="476" rx="94" fill="url(#paper)"/>
    <rect x="18" y="18" width="476" height="476" rx="94" fill="none" stroke="#eadfcd" stroke-width="10"/>
    <g transform="translate(92 116)">
      <path d="M24 58C24 30 50 18 88 18h72c18 0 28 10 28 28v244c0 11-10 18-20 12-30-17-66-25-108-25h-3c-21 0-33 14-33 37V58Z" fill="url(#leftPage)"/>
      <path d="M304 58C304 30 278 18 240 18h-72c-18 0-28 10-28 28v244c0 11 10 18 20 12 30-17 66-25 108-25h3c21 0 33 14 33 37V58Z" fill="url(#rightPage)"/>
      <path d="M164 44v258" fill="none" stroke="#fff7ec" stroke-width="8" stroke-linecap="round"/>
      <g stroke="#fff7ec" stroke-width="8" stroke-linecap="round" opacity=".88">
        <path d="M68 105h70"/>
        <path d="M68 140h78"/>
        <path d="M68 175h64"/>
        <path d="M68 222h80"/>
        <path d="M68 257h58"/>
        <path d="M190 105h70"/>
        <path d="M182 140h78"/>
        <path d="M196 175h64"/>
        <path d="M180 222h80"/>
        <path d="M202 257h58"/>
      </g>
    </g>
  </g>

  <text x="535" y="262" fill="#391f18" font-family="Georgia, 'Times New Roman', serif" font-size="78" font-weight="600">Reading Room</text>
  <text x="540" y="340" fill="#704034" font-family="Inter, Arial, sans-serif" font-size="30" font-weight="500">A quiet reading dashboard for notes,</text>
  <text x="540" y="384" fill="#704034" font-family="Inter, Arial, sans-serif" font-size="30" font-weight="500">streaks, voice journals, and Obsidian exports.</text>
  <path d="M540 444h320" stroke="#c1502c" stroke-width="8" stroke-linecap="round"/>
</svg>
