<svg xmlns="http://www.w3.org/2000/svg" viewBox="0 0 1200 630" role="img" aria-label="Reading Room preview">
  <defs>
    <linearGradient id="bg" x1="0" y1="0" x2="1200" y2="630" gradientUnits="userSpaceOnUse">
      <stop offset="0" stop-color="#fffdf8"/>
      <stop offset=".62" stop-color="#f7efe2"/>
      <stop offset="1" stop-color="#eaddcc"/>
    </linearGradient>
  </defs>
  <rect width="1200" height="630" fill="url(#bg)"/>
  <rect x="64" y="64" width="1072" height="502" rx="34" fill="#fffaf2" stroke="#e7d9c6" stroke-width="2"/>

  <g transform="translate(118 138) scale(.6914)">
    <defs>
      <linearGradient id="paper" x1="70" y1="54" x2="442" y2="466" gradientUnits="userSpaceOnUse">
        <stop offset="0" stop-color="#fffdf8"/>
        <stop offset="1" stop-color="#f1e7d7"/>
      </linearGradient>
      <linearGradient id="leftPage" x1="108" y1="128" x2="254" y2="376" gradientUnits="userSpaceOnUse">
        <stop offset="0" stop-color="#d55b35"/>
        <stop offset="1" stop-color="#ad351f"/>
      </linearGradient>
      <linearGradient id="rightPage" x1="258" y1="128" x2="404" y2="376" gradientUnits="userSpaceOnUse">
        <stop offset="0" stop-color="#c84b29"/>
        <stop offset="1" stop-color="#922b1b"/>
      </linearGradient>
    </defs>
    <rect x="18" y="18" width="476" height="476" rx="94" fill="url(#paper)"/>
    <rect x="18" y="18" width="476" height="476" rx="94" fill="none" stroke="#eadfcd" stroke-width="10"/>
    <g transform="translate(74 106)">
      <path d="M30 55C30 25 56 8 96 8h110c18 0 28 10 28 28v257c0 10-8 17-18 12-28-14-63-22-105-22H82c-34 0-52 18-52 49V55Z" fill="url(#leftPage)"/>
      <path d="M334 55c0-30-26-47-66-47H158c-18 0-28 10-28 28v257c0 10 8 17 18 12 28-14 63-22 105-22h29c34 0 52 18 52 49V55Z" fill="url(#rightPage)"/>
      <path d="M182 28v274" fill="none" stroke="#fff7ec" stroke-width="7" stroke-linecap="round"/>
      <path d="M108 82c42-17 86-7 99 23 15 34-21 66-67 54-30-8-34-36-11-47 18-8 36 3 32 18" fill="none" stroke="#fff7ec" stroke-width="16" stroke-linecap="round" stroke-linejoin="round" opacity=".96"/>
      <path d="M254 95c34-12 67-6 81 16 18 29-8 62-48 56-24-4-32-24-18-38 13-13 34-8 38 7" fill="none" stroke="#fff7ec" stroke-width="14" stroke-linecap="round" stroke-linejoin="round" opacity=".92"/>
      <g stroke="#fff7ec" stroke-width="8" stroke-linecap="round" opacity=".82">
        <path d="M72 195h74"/>
        <path d="M72 228h92"/>
        <path d="M72 261h66"/>
        <path d="M222 195h78"/>
        <path d="M222 228h88"/>
        <path d="M222 261h62"/>
      </g>
    </g>
  </g>

  <text x="535" y="262" fill="#391f18" font-family="Georgia, 'Times New Roman', serif" font-size="78" font-weight="600">Reading Room</text>
  <text x="540" y="340" fill="#704034" font-family="Inter, Arial, sans-serif" font-size="30" font-weight="500">A quiet reading dashboard for notes,</text>
  <text x="540" y="384" fill="#704034" font-family="Inter, Arial, sans-serif" font-size="30" font-weight="500">streaks, voice journals, and Obsidian exports.</text>
  <path d="M540 444h320" stroke="#c1502c" stroke-width="8" stroke-linecap="round"/>
</svg>
